<!-- icon666.com - MILLIONS OF FREE VECTOR ICONS --><svg clip-rule="evenodd" fill-rule="evenodd" image-rendering="optimizeQuality" shape-rendering="geometricPrecision" text-rendering="geometricPrecision" viewBox="0 0 1707 1707" xmlns="http://www.w3.org/2000/svg"><g id="Layer_x0020_1"><g id="_518507712"><path d="m875 1707c-2 0-4-1-6-1l-838-233c-9-3-15-10-15-19v-1176c0-6 3-12 8-16 5-3 11-5 17-3l839 224c9 2 15 10 15 19v1185c0 6-3 12-8 15-4 3-8 5-12 5z" fill="#232323"></path><g fill="#1d1d1d"><path d="m16 1297v-42l840 239 39-10v41l-34 9c-2 1-4 1-5 1-2 0-4 0-6-1z" fill="#1d1d1d" style="fill: rgb(0, 0, 0);"></path><path d="m16 736v-218l839 232 12-3 28-7v218l-28 7-7 2c-2 1-3 1-5 1s-4 0-5-1z" fill="#1d1d1d" style="fill: rgb(0, 0, 0);"></path><path d="m16 914v-58l180 49 659 177 40-10v56l-40 10z" fill="#1d1d1d" style="fill: rgb(0, 0, 0);"></path></g><path d="m875 1707c-4 0-9-2-12-4-5-4-8-10-8-16v-1185c0-9 6-17 14-19l796-224c6-2 12-1 17 3s8 10 8 16v1176c0 8-5 16-14 19l-796 233c-1 0-3 1-5 1z" fill="#1a1a1a"></path><path d="m1539 1513-251 73v-410c0-13 9-25 22-29l192-51c9-2 18 0 26 5 7 6 11 15 11 24z" fill="#131313" style="fill: rgb(26, 26, 26);"></path><g fill="#131313"><path d="m855 1535v-41h1l457-122c11-3 21 3 24 14s-3 22-14 24l-462 124c-2 1-4 1-5 1zm835-264v41l-176 47c-1 1-3 1-5 1-9 0-17-6-19-15-3-11 3-22 14-24z" fill="#131313" style="fill: rgb(26, 26, 26);"></path><path d="m855 968v-218l12-3 823-213v218l-823 213-7 2c-2 1-3 1-5 1z" fill="#131313" style="fill: rgb(26, 26, 26);"></path><path d="m855 1138v-56l809-202 26-7v41l-21 6z" fill="#131313" style="fill: rgb(26, 26, 26);"></path></g><path d="m855 522c-2 0-4 0-5-1l-819-224c-8-2-14-9-15-18 0-9 6-17 14-20l806-258c4-1 9-1 13 0l827 258c9 3 15 11 14 19 0 9-6 17-14 19l-816 224c-2 1-3 1-5 1z" fill="#65696a" style="fill: rgb(158, 158, 158);"></path><path d="m856 1520c-2 0-4 0-6-1l-834-237v-42l840 239 457-122c11-3 21 3 24 14s-3 22-14 24l-462 124c-2 1-4 1-5 1zm653-175c-9 0-17-6-19-15-3-11 3-22 14-24l186-50v41l-176 47c-1 1-3 1-5 1z" fill="#d79d22"></path><path d="m16 721v-218l839 232 12-3 823-213v218l-823 213-7 2c-2 1-3 1-5 1s-4 0-5-1z" fill="#d79d22"></path><path d="m16 721v-218l839 232v218c-2 0-4 0-5-1z" fill="#dd8e28"></path><path d="m16 899v-58l180 49 659 177 809-202 26-7v41l-21 6-814 218z" fill="#dd8e28"></path><path d="m855 1123v-56l809-202 26-7v41l-21 6z" fill="#d79d22"></path><path d="m1529 1516-231 67v-407c0-9 6-17 15-19l191-51c6-2 13-1 17 3 5 4 8 10 8 16z" fill="#d79d22"></path><path d="m107 276 748 205 745-204-757-236z" fill="#b3b3b3" style="fill: rgb(255, 255, 255);"></path><path d="m843 59 698 217-686 188-689-189zm0-18-736 235 748 205 745-204z" fill="#a4a4a4" style="fill: rgb(219, 219, 219);"></path></g></g></svg>